<svg id="10015.io" viewBox="0 0 480 480" xmlns="http://www.w3.org/2000/svg" xmlns:xlink="http://www.w3.org/1999/xlink" >
	<path fill="#8ed0ff" d="M456.5,275Q456,310,441.5,343Q427,376,391.5,387.5Q356,399,331.5,423Q307,447,273.5,458Q240,469,206,459.5Q172,450,139.5,436Q107,422,80.5,398.5Q54,375,53,338Q52,301,43.5,270.5Q35,240,26.5,204Q18,168,33.5,134.5Q49,101,87,91.5Q125,82,150.5,62Q176,42,208,36Q240,30,273.5,32.5Q307,35,330,59.5Q353,84,376,104Q399,124,426,147.5Q453,171,455,205.5Q457,240,456.5,275Z" />
</svg>